<svg xmlns="http://www.w3.org/2000/svg" xml:space="preserve" width="655.359" height="655.359" style="shape-rendering:geometricPrecision;text-rendering:geometricPrecision;image-rendering:optimizeQuality;fill-rule:evenodd;clip-rule:evenodd" viewBox="0 0 6.827 6.827"><defs><style>.fil1{fill:#fffffe}</style></defs><path style="fill:#424242" d="M0 0h6.827v6.827H0z"/><g id="Layer_x0020_1"><path class="fil1" d="M5.973 2.37v2.478c0 .17-.139.31-.31.31h-4.5a.31.31 0 0 1-.31-.31V2.37h5.12zm-.213.213H1.067v2.265c0 .053.043.096.096.096h4.5a.097.097 0 0 0 .097-.096V2.583z"/><path class="fil1" d="M1.163 1.67h4.5c.171 0 .31.138.31.309v.44H.853v-.44c0-.17.14-.31.31-.31zm.277.386a.08.08 0 1 1 0 .16.08.08 0 0 1 0-.16zm.4 0a.08.08 0 1 1 0 .16.08.08 0 0 1 0-.16zm.4 0a.08.08 0 1 1 0 .16.08.08 0 0 1 0-.16z"/><g id="_501821384"><path id="_501785408" class="fil1" d="M1.436 4.488a.08.08 0 0 0 0 .16h4.002a.08.08 0 0 0 0-.16H1.436z"/><path id="_501821192" class="fil1" d="M1.436 4.068a.08.08 0 0 0 0 .16h1.778a.08.08 0 0 0 0-.16H1.436z"/><path id="_501821408" class="fil1" d="M1.436 3.611a.08.08 0 0 0 0 .16h1.21a.08.08 0 0 0 0-.16h-1.21z"/><path id="_501820976" class="fil1" d="M1.337 2.879h4.186v.472H1.338z"/></g></g></svg>